name C:\Users\r0593348\3dpredictsim\Results\Batchsim_tmt_linear_v2\Pog_s1_tmt_aCst_d00_k250_ig24.mot
datacolumns 128
datarows 4
range 1.63824757 1.67101252
endheader
time	pelvis_tilt	pelvis_list	pelvis_rotation	pelvis_tx	pelvis_ty	pelvis_tz	hip_flexion_l	hip_adduction_l	hip_rotation_l	hip_flexion_r	hip_adduction_r	hip_rotation_r	knee_angle_l	knee_angle_r	ankle_angle_l	ankle_angle_r	subtalar_angle_l	subtalar_angle_r	tmt_angle_l	tmt_angle_r	mtp_angle_l	mtp_angle_r	lumbar_extension	lumbar_bending	lumbar_rotation	arm_flex_l	arm_add_l	arm_rot_l	arm_flex_r	arm_add_r	arm_rot_r	elbow_flex_l	elbow_flex_r	pro_sup_l	pro_sup_r	glut_med1_l/activation	glut_med2_l/activation	glut_med3_l/activation	glut_min1_l/activation	glut_min2_l/activation	glut_min3_l/activation	semimem_l/activation	semiten_l/activation	bifemlh_l/activation	bifemsh_l/activation	sar_l/activation	add_long_l/activation	add_brev_l/activation	add_mag1_l/activation	add_mag2_l/activation	add_mag3_l/activation	tfl_l/activation	pect_l/activation	grac_l/activation	glut_max1_l/activation	glut_max2_l/activation	glut_max3_l/activation	iliacus_l/activation	psoas_l/activation	quad_fem_l/activation	gem_l/activation	peri_l/activation	rect_fem_l/activation	vas_med_l/activation	vas_int_l/activation	vas_lat_l/activation	med_gas_l/activation	lat_gas_l/activation	soleus_l/activation	tib_post_l/activation	flex_dig_l/activation	flex_hal_l/activation	tib_ant_l/activation	per_brev_l/activation	per_long_l/activation	per_tert_l/activation	ext_dig_l/activation	ext_hal_l/activation	ercspn_l/activation	intobl_l/activation	extobl_l/activation	glut_med1_r/activation	glut_med2_r/activation	glut_med3_r/activation	glut_min1_r/activation	glut_min2_r/activation	glut_min3_r/activation	semimem_r/activation	semiten_r/activation	bifemlh_r/activation	bifemsh_r/activation	sar_r/activation	add_long_r/activation	add_brev_r/activation	add_mag1_r/activation	add_mag2_r/activation	add_mag3_r/activation	tfl_r/activation	pect_r/activation	grac_r/activation	glut_max1_r/activation	glut_max2_r/activation	glut_max3_r/activation	iliacus_r/activation	psoas_r/activation	quad_fem_r/activation	gem_r/activation	peri_r/activation	rect_fem_r/activation	vas_med_r/activation	vas_int_r/activation	vas_lat_r/activation	med_gas_r/activation	lat_gas_r/activation	soleus_r/activation	tib_post_r/activation	flex_dig_r/activation	flex_hal_r/activation	tib_ant_r/activation	per_brev_r/activation	per_long_r/activation	per_tert_r/activation	ext_dig_r/activation	ext_hal_r/activation	ercspn_r/activation	intobl_r/activation	extobl_r/activation	
          1.63824757	         -2.90743827	         -1.07814328	         -5.18766491	          2.04780946	          0.87032960	          0.00383224	         27.50367957	         -0.51850013	         -1.76989610	        -16.72408169	          1.64346811	          7.58258099	         -8.25201023	         -8.67935823	          7.01559890	         -9.19994962	          4.60264961	         10.85421083	          0.14545111	          3.97733870	         -0.07651311	         25.52405469	          0.27622916	          2.75429889	          1.46300588	         -9.54433959	        -13.46819731	         12.61292797	          3.48518608	        -13.50880902	         12.72391018	         17.22069762	         29.34136602	         86.51662706	         86.51662706	          0.05910157	          0.05910070	          0.05910172	          0.05000038	          0.05000071	          0.05910119	          0.06471908	          0.05910785	          0.08679609	          0.05910157	          0.05000071	          0.05467338	          0.10066466	          0.13069565	          0.16752303	          0.12675281	          0.05000182	          0.05000175	          0.10861993	          0.06985873	          0.08218590	          0.12570707	          0.05000007	          0.05000006	          0.15696653	          0.05000359	          0.05110570	          0.05000003	          0.05000055	          0.05000102	          0.05000043	          0.05910143	          0.05910150	          0.05910139	          0.07800466	          0.06229468	          0.05910629	          0.42864902	          0.28040781	          0.18000688	          0.14768568	          0.49771556	          0.21031658	          0.05000015	          0.12409267	          0.10839243	          0.27651645	          0.08755760	          0.05000017	          0.23683806	          0.16120196	          0.08329308	          0.05000090	          0.05000011	          0.05000008	          0.05000016	          0.06985960	          0.12598809	          0.05000043	          0.05000037	          0.05000094	          0.05000033	          0.22315396	          0.05910391	          0.05000042	          0.05000054	          0.05000033	          0.05000032	          0.28064781	          0.50912770	          0.05000004	          0.05000014	          0.05000007	          0.22004176	          0.08044860	          0.11948452	          0.08715898	          0.16632275	          0.23843644	          0.19906935	          0.18954573	          0.20773695	          0.24778510	          0.05000000	          0.11926104	          0.14862375	          0.05000012	          0.05000002	          0.05000004	          0.05000001	          0.05000001	          0.06760657	
          1.64916922	         -2.88390590	         -1.08813516	         -5.29963664	          2.06521859	          0.86925297	          0.00366804	         26.91995348	         -0.20755835	         -1.56813710	        -16.30873621	          1.51675543	          7.29102580	         -8.57765805	        -11.20895999	          6.25084402	         -9.85686456	          4.19488553	         12.02096354	          0.07189441	          3.44762656	         -0.06359911	         26.18945602	          0.51988802	          2.51996442	          1.52265361	        -10.75931421	        -13.47076394	         12.32377336	          3.16602563	        -13.55795133	         13.08638594	         17.29711868	         30.20595338	         86.51662706	         86.51662706	          0.05000020	          0.05000009	          0.05000039	          0.05000010	          0.05000010	          0.05000015	          0.05475261	          0.05000550	          0.07342985	          0.05000021	          0.05000070	          0.09760699	          0.17654373	          0.30515776	          0.25246878	          0.11042630	          0.05000014	          0.08257625	          0.09189316	          0.05910094	          0.06952971	          0.16012109	          0.05000119	          0.06985924	          0.51216434	          0.13638407	          0.12841244	          0.08527023	          0.31364649	          0.33238688	          0.25693322	          0.05000005	          0.05000012	          0.05000001	          0.06980765	          0.06007969	          0.05000443	          0.52546079	          0.23722624	          0.18188172	          0.36303786	          0.56250817	          0.31439480	          0.05000000	          0.10498290	          0.09170043	          0.23393404	          0.07407411	          0.05910132	          0.20036600	          0.13637755	          0.07046632	          0.05997795	          0.05000008	          0.05000013	          0.05000004	          0.05910157	          0.17520795	          0.32084763	          0.24425801	          0.06988214	          0.14616319	          0.18878919	          0.05000257	          0.05000027	          0.05000803	          0.05487403	          0.06985871	          0.23742918	          0.43072411	          0.05383148	          0.05910235	          0.05910136	          0.18615621	          0.11537377	          0.11537389	          0.07999459	          0.14070971	          0.20171819	          0.16841347	          0.16035648	          0.17574642	          0.20962724	          0.05000014	          0.10089533	          0.12573630	          0.05000005	          0.10414465	          0.05000251	          0.05727027	          0.09760665	          0.08257599	
          1.66009087	         -2.85463769	         -1.07125775	         -5.38641987	          2.08278669	          0.86785492	          0.00352416	         26.17444098	          0.02713319	         -1.32000853	        -15.79563815	          1.38578082	          6.97407509	         -9.14503837	        -13.92705868	          5.50219169	        -10.31917644	          3.75716691	         13.09753354	         -0.09075177	          2.74222940	         -0.14043141	         26.26745125	          0.76955258	          2.24880331	          1.56965625	        -11.95235902	        -13.49386997	         12.14835782	          2.79519389	        -13.61039451	         13.38335853	         17.32820622	         31.07756591	         86.51662706	         86.51662706	          0.31164767	          0.27355246	          0.19350737	          0.08165077	          0.05000095	          0.35223096	          0.08425853	          0.10369544	          0.09395190	          0.05000004	          0.05000027	          0.08257594	          0.14935675	          0.25816474	          0.21358980	          0.13925354	          0.05000042	          0.06986057	          0.07774256	          0.05000014	          0.05882248	          0.13546320	          0.05523267	          0.05910125	          0.43329309	          0.11538152	          0.18795354	          0.07213896	          0.26534621	          0.28120066	          0.21736656	          0.05651947	          0.05896934	          0.05910130	          0.05910127	          0.05910139	          0.05910139	          0.44454195	          0.30141984	          0.15387274	          0.30713156	          0.64197450	          0.47529671	          0.05000001	          0.08881600	          0.07757894	          0.23960199	          0.06266701	          0.05000005	          0.16951051	          0.11537600	          0.05961483	          0.08547532	          0.05000063	          0.05000154	          0.05000003	          0.05000032	          0.16381174	          0.39351188	          0.20664346	          0.05912136	          0.12365481	          0.15971649	          0.10898937	          0.05000146	          0.05000190	          0.05000334	          0.05910154	          0.20086607	          0.39094284	          0.05000096	          0.05000100	          0.05000006	          0.15748891	          0.09760669	          0.09760679	          0.06767576	          0.11904099	          0.17065441	          0.14247847	          0.13566224	          0.14868225	          0.17734553	          0.06475004	          0.11444434	          0.10637360	          0.12592593	          0.22533541	          0.16264777	          0.06348158	          0.08257562	          0.06985963	
          1.67101252	         -2.82250741	         -1.03758421	         -5.45038968	          2.10028824	          0.86615089	          0.00337250	         25.28602601	          0.22144702	         -1.05302946	        -15.18291537	          1.25239502	          6.64575927	         -9.61258122	        -16.79962020	          4.80016325	        -10.50844922	          3.28839909	         14.06729889	         -0.01662079	          1.93752893	         -0.18195869	         25.43274928	          1.00416738	          1.95826928	          1.60627193	        -13.07683244	        -13.53093172	         12.10560787	          2.41351098	        -13.67033463	         13.63138711	         17.28557642	         31.93704501	         86.51662706	         86.51662706	          0.37490643	          0.39987546	          0.39808745	          0.19873920	          0.28108094	          0.32105831	          0.07128308	          0.08772692	          0.07948372	          0.08197366	          0.05000116	          0.06985959	          0.12635643	          0.21840845	          0.18069817	          0.15678530	          0.05000021	          0.05910248	          0.06986132	          0.24011053	          0.17707551	          0.15645631	          0.05000006	          0.05000007	          0.36656772	          0.09761338	          0.21667033	          0.06102986	          0.22448400	          0.23789696	          0.18389302	          0.05000001	          0.05000002	          0.05000000	          0.05000000	          0.05000008	          0.05000006	          0.62573159	          0.31474465	          0.16081865	          0.59905996	          0.66244459	          0.40210299	          0.06809648	          0.07513873	          0.06563210	          0.20270429	          0.05301668	          0.05000011	          0.19047385	          0.09760876	          0.05910200	          0.11495525	          0.05000050	          0.05000037	          0.05910130	          0.06985967	          0.13858550	          0.33291266	          0.17482126	          0.05001708	          0.10461253	          0.13512093	          0.09220573	          0.05909203	          0.05000076	          0.05000031	          0.05000035	          0.16993353	          0.34017091	          0.05000005	          0.05000060	          0.05910056	          0.13323625	          0.08257566	          0.08257574	          0.05725397	          0.10070915	          0.14437432	          0.12053736	          0.11477082	          0.12578588	          0.15003507	          0.06761001	          0.09682042	          0.08999251	          0.26401011	          0.28720014	          0.27129809	          0.09779138	          0.06985931	          0.05910153	
